<svg width="154" height="45" viewBox="0 0 154 45" fill="none" xmlns="http://www.w3.org/2000/svg">
<path d="M41.16 45H30.216L11.912 17.288L11.912 45H0.968L0.968 0.0719971H11.912L30.216 27.912V0.0719971H41.16L41.16 45ZM87.173 0.0719971V45H76.229V18.056L66.181 45H57.349L47.237 17.992L47.237 45H36.293L36.293 0.0719971H49.221L61.829 31.176L74.309 0.0719971H87.173ZM108.291 45L93.187 25.16V45H82.243V0.0719971L93.187 0.0719971V19.784L108.163 0.0719971H121.027L103.619 22.088L121.667 45H108.291ZM140.116 45L125.012 25.16V45L114.068 45V0.0719971H125.012V19.784L139.988 0.0719971H152.852L135.444 22.088L153.492 45H140.116Z" fill="black"/>
<path d="M41.16 45V46H42.16V45H41.16ZM30.216 45L29.3816 45.5511L29.6781 46H30.216V45ZM11.912 17.288L12.7464 16.7369L10.912 13.9596V17.288H11.912ZM11.912 45V46H12.912V45H11.912ZM0.968 45H-0.032V46H0.968V45ZM0.968 0.0719971V-0.928003H-0.032V0.0719971H0.968ZM11.912 0.0719971L12.7476 -0.477372L12.4513 -0.928003H11.912V0.0719971ZM30.216 27.912L29.3804 28.4614L31.216 31.2532V27.912H30.216ZM30.216 0.0719971V-0.928003H29.216V0.0719971H30.216ZM41.16 0.0719971H42.16V-0.928003H41.16V0.0719971ZM41.16 44H30.216V46H41.16V44ZM31.0504 44.4489L12.7464 16.7369L11.0776 17.8391L29.3816 45.5511L31.0504 44.4489ZM10.912 17.288L10.912 45H12.912L12.912 17.288H10.912ZM11.912 44H0.968V46H11.912V44ZM1.968 45L1.968 0.0719971H-0.032L-0.032 45H1.968ZM0.968 1.072H11.912V-0.928003H0.968V1.072ZM11.0764 0.621367L29.3804 28.4614L31.0516 27.3626L12.7476 -0.477372L11.0764 0.621367ZM31.216 27.912V0.0719971H29.216V27.912H31.216ZM30.216 1.072H41.16V-0.928003H30.216V1.072ZM40.16 0.0719971L40.16 45H42.16L42.16 0.0719971H40.16ZM87.173 0.0719971H88.173V-0.928003H87.173V0.0719971ZM87.173 45V46H88.173V45H87.173ZM76.229 45H75.229V46H76.229V45ZM76.229 18.056H77.229L75.292 17.7066L76.229 18.056ZM66.181 45V46H66.8754L67.118 45.3494L66.181 45ZM57.349 45L56.4125 45.3506L56.6556 46H57.349V45ZM47.237 17.992L48.1735 17.6414L46.237 17.992H47.237ZM47.237 45V46H48.237V45H47.237ZM36.293 45H35.293V46H36.293V45ZM36.293 0.0719971V-0.928003H35.293V0.0719971H36.293ZM49.221 0.0719971L50.1478 -0.303664L49.8947 -0.928003H49.221V0.0719971ZM61.829 31.176L60.9022 31.5517L61.8337 33.8496L62.7571 31.5484L61.829 31.176ZM74.309 0.0719971V-0.928003H73.6327L73.3809 -0.300381L74.309 0.0719971ZM86.173 0.0719971V45H88.173V0.0719971H86.173ZM87.173 44H76.229V46H87.173V44ZM77.229 45V18.056H75.229V45H77.229ZM75.292 17.7066L65.244 44.6506L67.118 45.3494L77.166 18.4054L75.292 17.7066ZM66.181 44H57.349V46H66.181V44ZM58.2855 44.6494L48.1735 17.6414L46.3005 18.3426L56.4125 45.3506L58.2855 44.6494ZM46.237 17.992L46.237 45H48.237L48.237 17.992H46.237ZM47.237 44H36.293V46H47.237V44ZM37.293 45L37.293 0.0719971H35.293L35.293 45H37.293ZM36.293 1.072H49.221V-0.928003H36.293V1.072ZM48.2942 0.447658L60.9022 31.5517L62.7558 30.8003L50.1478 -0.303664L48.2942 0.447658ZM62.7571 31.5484L75.2371 0.444375L73.3809 -0.300381L60.9009 30.8036L62.7571 31.5484ZM74.309 1.072H87.173V-0.928003H74.309V1.072ZM108.291 45L107.495 45.6057L107.795 46H108.291V45ZM93.187 25.16L93.9827 24.5543L92.187 22.1955V25.16H93.187ZM93.187 45V46H94.187V45H93.187ZM82.243 45H81.243V46H82.243V45ZM82.243 0.0719971V-0.928003H81.243V0.0719971H82.243ZM93.187 0.0719971H94.187V-0.928003H93.187V0.0719971ZM93.187 19.784H92.187V22.7533L93.9833 20.3889L93.187 19.784ZM108.163 0.0719971V-0.928003H107.667L107.367 -0.532955L108.163 0.0719971ZM121.027 0.0719971L121.811 0.692233L123.093 -0.928003H121.027V0.0719971ZM103.619 22.088L102.835 21.4678L102.345 22.0868L102.833 22.7068L103.619 22.088ZM121.667 45V46H123.728L122.453 44.3812L121.667 45ZM109.087 44.3943L93.9827 24.5543L92.3913 25.7657L107.495 45.6057L109.087 44.3943ZM92.187 25.16V45H94.187V25.16H92.187ZM93.187 44H82.243V46H93.187V44ZM83.243 45V0.0719971H81.243V45H83.243ZM82.243 1.072L93.187 1.072V-0.928003L82.243 -0.928003V1.072ZM92.187 0.0719971V19.784H94.187V0.0719971L92.187 0.0719971ZM93.9833 20.3889L108.959 0.676949L107.367 -0.532955L92.3907 19.179L93.9833 20.3889ZM108.163 1.072H121.027V-0.928003H108.163V1.072ZM120.243 -0.548238L102.835 21.4678L104.403 22.7082L121.811 0.692233L120.243 -0.548238ZM102.833 22.7068L120.881 45.6188L122.453 44.3812L104.405 21.4692L102.833 22.7068ZM121.667 44H108.291V46H121.667V44ZM140.116 45L139.32 45.6057L139.62 46H140.116V45ZM125.012 25.16L125.808 24.5543L124.012 22.1955V25.16H125.012ZM125.012 45V46H126.012V45H125.012ZM114.068 45H113.068V46H114.068V45ZM114.068 0.0719971V-0.928003H113.068V0.0719971H114.068ZM125.012 0.0719971H126.012V-0.928003H125.012V0.0719971ZM125.012 19.784H124.012V22.7533L125.808 20.3889L125.012 19.784ZM139.988 0.0719971V-0.928003H139.492L139.192 -0.532955L139.988 0.0719971ZM152.852 0.0719971L153.636 0.692233L154.918 -0.928003H152.852V0.0719971ZM135.444 22.088L134.66 21.4678L134.17 22.0868L134.658 22.7068L135.444 22.088ZM153.492 45V46H155.553L154.278 44.3812L153.492 45ZM140.912 44.3943L125.808 24.5543L124.216 25.7657L139.32 45.6057L140.912 44.3943ZM124.012 25.16V45L126.012 45V25.16H124.012ZM125.012 44L114.068 44V46L125.012 46V44ZM115.068 45V0.0719971H113.068V45H115.068ZM114.068 1.072H125.012V-0.928003H114.068V1.072ZM124.012 0.0719971V19.784H126.012V0.0719971H124.012ZM125.808 20.3889L140.784 0.676949L139.192 -0.532955L124.216 19.179L125.808 20.3889ZM139.988 1.072H152.852V-0.928003H139.988V1.072ZM152.068 -0.548238L134.66 21.4678L136.228 22.7082L153.636 0.692233L152.068 -0.548238ZM134.658 22.7068L152.706 45.6188L154.278 44.3812L136.23 21.4692L134.658 22.7068ZM153.492 44H140.116V46H153.492V44Z" fill="black"/>
</svg>
